<svg xmlns="http://www.w3.org/2000/svg" xmlns:xlink="http://www.w3.org/1999/xlink" id="Camada_1" viewBox="0 0 500 110"><defs><style>.cls-1{fill:url(#linear-gradient-2);}.cls-2{fill:#fff;}.cls-3{fill:none;}.cls-4{fill:url(#linear-gradient-3);}.cls-5{fill:url(#linear-gradient);}</style><linearGradient id="linear-gradient" x1="1.5" y1="55" x2="108.7" y2="55" gradientUnits="userSpaceOnUse"><stop offset="0" stop-color="#3ad87e"></stop><stop offset="1" stop-color="#acf684"></stop></linearGradient><linearGradient id="linear-gradient-2" x1="55.1" y1="75.4" x2="78" y2="75.4" xlink:href="#linear-gradient"></linearGradient><linearGradient id="linear-gradient-3" x1="32.2" x2="78" xlink:href="#linear-gradient"></linearGradient></defs><g><g><path class="cls-5" d="M55.1,108.6c-14.3,0-27.8-5.6-37.9-15.7C7.1,82.8,1.5,69.3,1.5,55S7.1,27.2,17.2,17.1C27.3,7,40.8,1.4,55.1,1.4s27.8,5.6,37.9,15.7c10.1,10.1,15.7,23.6,15.7,37.9s-5.6,27.8-15.7,37.9-23.6,15.7-37.9,15.7Zm0-99C30,9.6,9.6,29.9,9.6,55s20.4,45.4,45.4,45.4,45.4-20.4,45.4-45.4S80.1,9.6,55.1,9.6Z"></path><g><path class="cls-1" d="M55.1,64l20.8,22.4c.7,.8,2,.3,2-.8v-16c0-3.1-2.5-5.6-5.6-5.6h-17.2Z"></path><path class="cls-4" d="M78,39.1v11c0,3.2-1.9,6-4.6,7.3-1.1,.5-2.3,.8-3.6,.8h-6.8c-1.5,0-3-.4-4.4-1.1-1.5-.8-3.3-1.3-5.2-1.2-5.3,.2-9.6,4.6-9.7,9.9,0,5.6,4.4,10.2,10,10.2,2.9,0,5.3-1.5,6.4-2.3s.9-.2,1.2,.1l6.6,7.2c.3,.4,.3,.9,0,1.2-1.3,1.1-3.7,2.9-6.9,4.2s-4.3,1.3-7.2,1.2c-12,0-21.8-9.6-21.8-21.6,0-8.6,5-16.1,12.3-19.6,2.8-1.3,6-2.1,9.3-2.1s8,1.2,11.3,3.2c.5,.3,1.2,0,1.2-.7v-5.3c0-4.1-3.4-7.5-7.5-7.5h-4.9c-2.3,0-4.2,1.6-4.7,3.8s-.4,.6-.8,.6h-10.7c-.5,0-.8-.4-.8-.8,.4-8.4,7.4-15.2,16-15.2h8.3c9.2,0,16.7,7.5,16.7,16.7Z"></path></g></g><g><path class="cls-2" d="M319,69.7c-.6-.6-1.5-.7-2.1-.2-1,.7-2.2,1.4-3.4,1.9-2.3,.9-4.8,1.4-7.7,1.4s-6.8-.8-9.5-2.3c-2.7-1.5-4.8-3.6-6.3-6.3-1.5-2.7-2.3-5.7-2.3-9.3s.8-6.4,2.3-9.1c1.5-2.7,3.7-4.8,6.5-6.4,2.8-1.5,5.9-2.3,9.5-2.3s6.6,.8,9.3,2.3c2.4,1.3,4.3,3,6.1,5.8,.5,.7,1.4,.9,2.1,.5l4.9-2.8c.8-.5,1.1-1.5,.5-2.3-2.7-4-5.6-6.7-9.3-8.7-4.1-2.2-8.7-3.3-13.7-3.3s-9.9,1.1-14,3.4c-4.1,2.3-7.4,5.4-9.7,9.4-2.4,4-3.5,8.5-3.5,13.5s1.2,9.5,3.4,13.5c2.3,4,5.5,7.1,9.6,9.4,4.2,2.3,8.8,3.4,14,3.4s9.6-1.1,13.6-3.3c1.2-.6,2.2-1.3,3.3-2.1s.8-1.7,.2-2.4l-3.7-3.9Z"></path><path class="cls-2" d="M156.7,67.3h-17.2l-4.1,11.6c-.2,.6-.8,1.1-1.5,1.1h-5.7c-1.1,0-1.9-1.1-1.5-2.2l16.7-46.8c.5-1.3,1.7-2.1,3-2.1h3.8c1.4,0,2.6,.9,3,2.1l16.5,46.8c.4,1.1-.4,2.2-1.5,2.2h-5.9c-.7,0-1.3-.4-1.5-1.1l-4.1-11.6Zm-15.1-8.4h12.8s-6.3-17.4-6.3-17.4l-6.5,17.4Z"></path><path class="cls-2" d="M195.4,78.3c-.9,.6-1.7,1-2.7,1.4-1.8,.7-3.7,1.1-5.7,1.1s-5.3-.6-7.5-1.8c-2.2-1.2-4-2.9-5.3-5.2-1.3-2.2-1.9-4.6-1.9-7.2v-17.6c0-2.3,1.9-4.2,4.2-4.2h2.6c.9,0,1.6,.7,1.6,1.6v19.4c0,1.3,.3,2.5,.9,3.5,.6,1.1,1.5,1.9,2.6,2.5,1.1,.6,2.4,1,3.9,1s2.8-.3,3.9-1c2.3-1.3,3.5-3.5,3.5-6.1v-16.6c0-2.3,1.9-4.2,4.2-4.2h2.5c.9,0,1.6,.7,1.6,1.6v32.1c0,.9-.7,1.6-1.6,1.6h-5.1c-.9,0-1.6-.7-1.6-1.6v-.2Z"></path><path class="cls-2" d="M218.7,78.6c-1.7-.9-2.9-2.3-3.9-3.9-.9-1.6-1.4-3.6-1.4-5.6v-16.8h-3c-.9,0-1.6-.7-1.6-1.6v-4.7c0-.9,.7-1.6,1.6-1.6h3v-3.6c0-1.6,1.3-2.9,2.9-2.9h5.4v6.4h9.1c.9,0,1.6,.7,1.6,1.6v4.7c0,.9-.7,1.6-1.6,1.6h-9.1v15.8c0,1.4,.3,2.3,1,2.9,.6,.6,1.6,1.1,2.9,1.1h5.2c.9,0,1.6,.7,1.6,1.6v4.7c0,.9-.7,1.6-1.6,1.6h-6.5c-2,0-3.9-.4-5.6-1.4Z"></path><path class="cls-2" d="M417.9,78.5c-1.7-.9-2.9-2.3-3.9-3.9-.9-1.6-1.4-3.6-1.4-5.6v-16.8h-3c-.9,0-1.6-.7-1.6-1.6v-4.7c0-.9,.7-1.6,1.6-1.6h3v-3.6c0-1.6,1.3-2.9,2.9-2.9h5.4v6.4h9.1c.9,0,1.6,.7,1.6,1.6v4.7c0,.9-.7,1.6-1.6,1.6h-9.1v15.8c0,1.4,.3,2.3,1,2.9,.6,.6,1.6,1.1,2.9,1.1h5.2c.9,0,1.6,.7,1.6,1.6v4.7c0,.9-.7,1.6-1.6,1.6h-6.5c-2,0-3.9-.4-5.6-1.4Z"></path><path class="cls-2" d="M264,78.3c-2.9,1.6-6.2,2.5-9.9,2.5s-6.9-.8-9.8-2.5c-2.9-1.6-5.2-3.8-6.9-6.7-1.7-2.8-2.5-5.9-2.5-9.3s.8-6.5,2.5-9.3c1.7-2.8,4-5,6.9-6.7,2.9-1.6,6.2-2.4,9.8-2.4s6.9,.8,9.9,2.4c2.9,1.6,5.2,3.9,6.9,6.7,1.7,2.8,2.5,5.9,2.5,9.3s-.8,6.5-2.5,9.3c-1.7,2.8-4,5.1-6.9,6.7Zm-4.3-24.9c-1.6-.9-3.4-1.3-5.6-1.3s-4,.4-5.6,1.3c-1.6,.9-2.9,2.1-3.8,3.6s-1.4,3.3-1.4,5.3,.5,3.8,1.4,5.3c.9,1.5,2.2,2.7,3.8,3.6,1.6,.9,3.4,1.3,5.6,1.3s4-.5,5.6-1.3c1.6-.9,2.9-2.1,3.8-3.7,.9-1.5,1.4-3.3,1.4-5.3s-.5-3.8-1.4-5.3c-.9-1.5-2.2-2.8-3.8-3.7Z"></path><path class="cls-2" d="M345.5,66.2c.4,1,.9,1.9,1.5,2.7,2,2.6,5.1,3.8,8.3,3.8s3.6-.4,5.1-1.2c1.2-.6,2.2-1.4,3.4-2.9s1.4-.8,2.1-.4l4.3,2.6c.8,.5,1,1.6,.4,2.4-2,2.6-4,4.2-6.3,5.3-2.7,1.4-5.7,2.2-9,2.2s-6.9-.8-9.7-2.4c-2.9-1.6-5.1-3.8-6.8-6.7-1.6-2.8-2.5-5.9-2.5-9.3s.8-6.5,2.4-9.4c1.6-2.8,3.8-5,6.5-6.6,2.8-1.6,6-2.4,9.5-2.4s6.6,.8,9.4,2.4c2.8,1.6,4.9,3.9,6.4,6.7,1.5,2.8,2.3,6,2.3,9.4s0,1.5-.1,2.4-.8,1.4-1.6,1.4h-25.6Zm13.9-13.2c-1.3-.6-2.9-1-4.6-1s-3.4,.3-4.7,1c-1.3,.7-2.4,1.6-3.3,2.7-.6,.9-1.1,1.8-1.4,2.9h18.7c-.3-1.1-.8-2.1-1.4-2.9-.9-1.2-1.9-2.1-3.3-2.7Z"></path><path class="cls-2" d="M401.4,78.1c-1.3,1-2.8,1.8-4.5,2.4-1.7,.6-3.6,.9-5.6,.9s-3.7-.3-5.4-.9c-3.1-1.1-5.7-3-7.3-6.2-.6-1.2-.9-2.4-1-4.2,0-.9,.7-1.7,1.6-1.7h5.2c.8,0,1.6,.6,1.6,1.5s.2,1,.3,1.3c.2,.4,.6,.9,1,1.2,.5,.3,1.1,.6,1.8,.8,.8,.2,1.6,.3,2.5,.3s1.7-.1,2.5-.3c.7-.2,1.3-.5,1.8-.8,.4-.3,.8-.7,1-1.1,.2-.4,.3-.8,.3-1.4,0-1.1-.3-1.5-1.2-2.1-.4-.2-1.1-.4-2-.7-1.8-.4-3.8-.5-5.6-.8l-1.5-.2c-2.9-.4-5.1-1.7-6.6-3.5-1.5-1.8-2.3-3.9-2.3-6.5s.3-3.2,1.1-4.7c1.6-3.1,4.1-4.9,7.3-5.9,1.7-.5,3.4-.8,5.4-.8s3.6,.3,5.2,.8c3,1.1,5.6,3,7.1,6,.6,1.1,.9,2.3,1,4s-.7,1.7-1.6,1.7h-5.2c-.8,0-1.5-.6-1.6-1.5s-.1-.8-.3-1.1c-.2-.4-.5-.8-1-1.1-.4-.3-.9-.5-1.6-.8-.7-.2-1.4-.3-2.3-.3-1.4,0-2.9,.2-3.9,1.1-.8,.6-1.3,1.4-1.3,2.4s.2,1.2,.5,1.4c.4,.4,1.1,.7,1.9,.9,1,.2,2.1,.4,3.4,.5,1.4,.2,2.9,.4,4.5,.7,2.8,.5,5,1.7,6.6,3.5,1.5,1.8,2.3,4.1,2.3,6.7s-.3,3.3-1.1,4.8c-.8,1.5-1.7,2.7-3,3.7Z"></path><path class="cls-2" d="M463.3,78.3c-2.9,1.6-6.2,2.5-9.9,2.5s-6.9-.8-9.8-2.5c-2.9-1.6-5.2-3.8-6.9-6.7-1.7-2.8-2.5-5.9-2.5-9.3s.8-6.5,2.5-9.3c1.7-2.8,4-5,6.9-6.7,2.9-1.6,6.2-2.4,9.8-2.4s6.9,.8,9.9,2.4c2.9,1.6,5.2,3.9,6.9,6.7,1.7,2.8,2.5,5.9,2.5,9.3s-.8,6.5-2.5,9.3c-1.7,2.8-4,5.1-6.9,6.7Zm-4.3-24.9c-1.6-.9-3.4-1.3-5.6-1.3s-4,.4-5.6,1.3c-1.6,.9-2.9,2.1-3.8,3.6s-1.4,3.3-1.4,5.3,.5,3.8,1.4,5.3c.9,1.5,2.2,2.7,3.8,3.6,1.6,.9,3.4,1.3,5.6,1.3s4-.5,5.6-1.3c1.6-.9,2.9-2.1,3.8-3.7,.9-1.5,1.4-3.3,1.4-5.3s-.5-3.8-1.4-5.3c-.9-1.5-2.2-2.8-3.8-3.7Z"></path><path class="cls-2" d="M489.2,53.7c-1.1,.7-2,1.4-2.5,2.2-.4,.6-.8,1.9-.8,4v18.4c0,.9-.7,1.6-1.6,1.6h-4.9c-.9,0-1.6-.7-1.6-1.6v-29c0-2.6,2.1-4.6,4.6-4.6h3.4v2.4c2.2-1.7,4.9-2.5,7.6-2.5h3.5c.9,0,1.6,.7,1.6,1.6v4.9c0,.9-.7,1.6-1.6,1.6h-4c-1.5,0-2.7,.3-3.7,.9Z"></path><path class="cls-2" d="M329.9,76.2l-20.6-21.8h17.3c2.6,0,4.8,2.1,4.8,4.7v16.5c0,.8-.9,1.1-1.4,.6Z"></path></g></g><rect class="cls-3" width="500" height="110"></rect></svg>