<svg xmlns="http://www.w3.org/2000/svg" xmlns:xlink="http://www.w3.org/1999/xlink" id="Layer_1" viewBox="0 0 512 110.45"><defs><style>.cls-1{fill:url(#Gradiente_sem_nome);}.cls-2{fill:url(#Gradiente_sem_nome_3);}.cls-3{fill:url(#Gradiente_sem_nome_2);}.cls-4{fill:none;}.cls-5{fill:#204888;}</style><linearGradient id="Gradiente_sem_nome" x1="-.03" y1="-863.18" x2="110.42" y2="-863.18" gradientTransform="translate(0 -807.95) scale(1 -1)" gradientUnits="userSpaceOnUse"><stop offset="0" stop-color="#3ad87e"></stop><stop offset="1" stop-color="#acf684"></stop></linearGradient><linearGradient id="Gradiente_sem_nome_2" x1="55.23" y1="-884.19" x2="78.75" y2="-884.19" gradientTransform="translate(0 -807.95) scale(1 -1)" gradientUnits="userSpaceOnUse"><stop offset="0" stop-color="#3ad87e"></stop><stop offset="1" stop-color="#acf684"></stop></linearGradient><linearGradient id="Gradiente_sem_nome_3" x1="31.6" y1="-863.12" x2="78.79" y2="-863.12" gradientTransform="translate(0 -807.95) scale(1 -1)" gradientUnits="userSpaceOnUse"><stop offset="0" stop-color="#3ad87e"></stop><stop offset="1" stop-color="#acf684"></stop></linearGradient></defs><rect class="cls-4" width="512" height="110.45"></rect><g><g><path class="cls-1" d="M55.19,110.45c-14.75,0-28.63-5.73-39.04-16.18C5.73,83.85-.03,69.98-.03,55.23S5.7,26.6,16.15,16.18C26.56,5.77,40.44,0,55.19,0s28.63,5.73,39.04,16.18c10.42,10.42,16.18,24.29,16.18,39.04s-5.73,28.63-16.18,39.04c-10.45,10.42-24.29,16.18-39.04,16.18Zm0-102.03C29.36,8.42,8.39,29.43,8.39,55.23s21.01,46.8,46.8,46.8,46.8-21.01,46.8-46.8S80.99,8.42,55.19,8.42Z"></path><g><path class="cls-3" d="M55.23,64.49l21.46,23.1c.73,.8,2.06,.28,2.06-.8v-16.5c0-3.18-2.59-5.8-5.8-5.8h-17.72Z"></path><path class="cls-2" d="M78.79,38.87v11.32c0,3.32-1.92,6.19-4.72,7.55-1.12,.56-2.38,.84-3.71,.84h-6.99c-1.57,0-3.11-.42-4.51-1.19-1.57-.87-3.39-1.33-5.31-1.26-5.49,.17-9.93,4.68-10,10.17-.07,5.77,4.58,10.49,10.35,10.49,3.01,0,5.49-1.54,6.61-2.38,.35-.28,.87-.21,1.19,.1l6.85,7.41c.35,.38,.31,.94-.07,1.26-1.36,1.19-3.81,2.97-7.06,4.3-1.96,.8-4.47,1.29-7.38,1.26-12.41-.1-22.41-9.86-22.44-22.27,0-8.91,5.17-16.57,12.72-20.17,2.9-1.4,6.15-2.17,9.58-2.17,4.26,0,8.28,1.19,11.67,3.29,.56,.35,1.26-.07,1.26-.7v-5.42c0-4.26-3.46-7.72-7.72-7.72h-5.07c-2.38,0-4.37,1.68-4.86,3.88-.07,.38-.42,.63-.8,.63h-10.98c-.45,0-.84-.38-.8-.87,.45-8.7,7.65-15.62,16.46-15.62h8.53c9.47,.07,17.2,7.76,17.2,17.27Z"></path></g></g><g><path class="cls-5" d="M327.03,70.36c-.59-.63-1.54-.66-2.2-.17-1.05,.77-2.24,1.4-3.53,1.96-2.34,.94-5,1.47-7.9,1.47-3.78,0-7.03-.8-9.82-2.34-2.83-1.54-4.93-3.74-6.47-6.5-1.54-2.8-2.34-5.91-2.34-9.54s.77-6.61,2.38-9.37c1.57-2.8,3.81-4.96,6.64-6.54,2.9-1.57,6.08-2.38,9.79-2.38s6.78,.77,9.61,2.31c2.45,1.36,4.4,3.15,6.33,5.98,.49,.73,1.47,.94,2.2,.49l5-2.9c.84-.49,1.08-1.54,.56-2.34-2.76-4.16-5.8-6.89-9.54-8.95-4.19-2.27-8.95-3.43-14.16-3.43s-10.17,1.15-14.47,3.53c-4.26,2.34-7.58,5.56-10.03,9.68-2.41,4.12-3.64,8.81-3.64,13.91s1.19,9.79,3.57,13.95c2.34,4.12,5.7,7.34,9.89,9.68,4.3,2.34,9.09,3.53,14.44,3.53s9.86-1.12,13.98-3.39c1.19-.63,2.31-1.36,3.36-2.17,.77-.59,.84-1.75,.17-2.45l-3.81-4.02Z"></path><path class="cls-5" d="M159.88,67.91h-17.76l-4.19,11.95c-.24,.66-.87,1.12-1.57,1.12h-5.87c-1.15,0-1.96-1.15-1.57-2.24l17.16-48.17c.45-1.33,1.71-2.2,3.11-2.2h3.88c1.4,0,2.66,.87,3.11,2.2l17.06,48.17c.38,1.08-.42,2.2-1.57,2.2h-6.05c-.7,0-1.33-.45-1.57-1.12l-4.16-11.92Zm-15.52-8.63l13.14,.03-6.5-17.93-6.64,17.9Z"></path><path class="cls-5" d="M199.76,79.2c-.87,.59-1.78,1.05-2.8,1.47-1.82,.73-3.81,1.08-5.91,1.08-2.87,0-5.42-.63-7.72-1.89-2.27-1.26-4.12-3.04-5.45-5.31-1.29-2.2-1.96-4.72-1.96-7.38v-18.14c0-2.41,1.96-4.37,4.37-4.37h2.66c.91,0,1.68,.73,1.68,1.68v19.96c0,1.33,.31,2.52,.91,3.64,.59,1.08,1.5,1.92,2.66,2.55,1.12,.63,2.45,.98,4.02,.98s2.87-.31,3.98-.98c2.34-1.33,3.6-3.64,3.6-6.33v-17.13c0-2.41,1.96-4.37,4.37-4.37h2.59c.91,0,1.68,.73,1.68,1.68v33.03c0,.91-.73,1.68-1.68,1.68h-5.28c-.91,0-1.68-.73-1.68-1.68v-.17h-.03Z"></path><path class="cls-5" d="M223.74,79.55c-1.71-.94-3.04-2.31-4.02-4.02-.94-1.68-1.4-3.67-1.4-5.77v-17.34h-3.04c-.91,0-1.68-.73-1.68-1.68v-4.82c0-.91,.73-1.68,1.68-1.68h3.04v-3.67c0-1.64,1.33-2.97,2.97-2.97h5.52v6.61h9.4c.91,0,1.68,.73,1.68,1.68v4.82c0,.91-.73,1.68-1.68,1.68h-9.4v16.29c0,1.4,.35,2.34,1.01,3.04,.66,.66,1.61,1.08,3.04,1.08h5.38c.91,0,1.68,.73,1.68,1.68v4.79c0,.91-.73,1.68-1.68,1.68h-6.71c-2.17,0-4.09-.45-5.8-1.4Z"></path><path class="cls-5" d="M428.99,79.41c-1.71-.94-3.04-2.31-4.02-4.02-.94-1.68-1.4-3.67-1.4-5.77v-17.34h-3.04c-.91,0-1.68-.73-1.68-1.68v-4.82c0-.91,.73-1.68,1.68-1.68h3.04v-3.67c0-1.64,1.33-2.97,2.97-2.97h5.52v6.61h9.4c.91,0,1.68,.73,1.68,1.68v4.82c0,.91-.73,1.68-1.68,1.68h-9.4v16.29c0,1.4,.35,2.34,1.01,3.04,.66,.66,1.61,1.08,3.04,1.08h5.38c.91,0,1.68,.73,1.68,1.68v4.79c0,.91-.73,1.68-1.68,1.68h-6.71c-2.17,0-4.09-.45-5.8-1.4Z"></path><path class="cls-5" d="M270.47,79.24c-3.04,1.68-6.43,2.52-10.17,2.52s-7.1-.84-10.14-2.52c-3.01-1.64-5.38-3.95-7.13-6.85-1.71-2.9-2.55-6.08-2.55-9.58s.84-6.68,2.55-9.61c1.71-2.9,4.09-5.17,7.13-6.85,3.04-1.64,6.4-2.48,10.14-2.48s7.1,.8,10.17,2.48c3.01,1.64,5.35,3.98,7.06,6.85,1.71,2.94,2.55,6.12,2.55,9.61s-.84,6.68-2.55,9.58c-1.75,2.9-4.12,5.21-7.06,6.85Zm-4.4-25.69c-1.61-.87-3.57-1.33-5.77-1.33s-4.12,.45-5.8,1.36c-1.68,.87-3.01,2.13-3.91,3.74-.91,1.57-1.4,3.43-1.4,5.49s.49,3.91,1.4,5.49c.91,1.54,2.2,2.8,3.95,3.74,1.64,.87,3.57,1.36,5.77,1.36s4.12-.49,5.77-1.36c1.68-.94,3.01-2.13,3.91-3.77,.87-1.57,1.4-3.43,1.4-5.45s-.49-3.88-1.4-5.49c-.91-1.57-2.24-2.83-3.91-3.78Z"></path><path class="cls-5" d="M354.32,66.76c.38,1.01,.87,1.96,1.54,2.76,2.06,2.66,5.24,3.95,8.6,3.95,1.96,0,3.71-.42,5.24-1.22,1.26-.63,2.31-1.47,3.53-2.97,.52-.66,1.47-.8,2.17-.38l4.4,2.73c.84,.52,1.05,1.68,.42,2.45-2.06,2.66-4.09,4.26-6.47,5.49-2.83,1.47-5.91,2.2-9.33,2.2-3.71,0-7.06-.84-10.03-2.48-3.01-1.64-5.28-3.95-6.96-6.85-1.64-2.94-2.52-6.08-2.52-9.61s.8-6.71,2.41-9.65c1.61-2.9,3.88-5.17,6.71-6.82,2.9-1.64,6.15-2.48,9.79-2.48s6.82,.8,9.72,2.45c2.87,1.64,5.03,3.98,6.61,6.85,1.57,2.94,2.34,6.15,2.34,9.65,0,.8-.03,1.5-.14,2.45-.1,.84-.8,1.5-1.64,1.5h-26.39Zm14.3-13.6c-1.36-.66-2.97-1.01-4.75-1.01-1.89,0-3.53,.35-4.89,1.01-1.33,.7-2.48,1.61-3.39,2.83-.66,.87-1.12,1.85-1.4,3.04h19.26c-.35-1.15-.8-2.13-1.43-3.04-.87-1.22-1.99-2.17-3.39-2.83Z"></path><path class="cls-5" d="M411.96,79c-1.33,1.05-2.87,1.85-4.61,2.45s-3.74,.87-5.77,.87-3.84-.28-5.59-.91c-3.22-1.15-5.91-3.15-7.48-6.36-.56-1.19-.94-2.45-1.08-4.3-.07-.98,.7-1.82,1.64-1.82h5.38c.87,0,1.61,.66,1.68,1.5,.07,.66,.17,1.01,.31,1.29,.24,.45,.59,.87,1.05,1.19,.49,.35,1.08,.66,1.82,.84,.77,.21,1.61,.31,2.55,.31s1.75-.1,2.52-.31c.7-.17,1.29-.49,1.82-.84,.45-.31,.77-.7,1.01-1.15,.21-.38,.35-.84,.35-1.43,0-1.08-.28-1.57-1.22-2.13-.45-.24-1.12-.45-2.1-.7-1.89-.42-3.88-.52-5.8-.8l-1.57-.24c-3.01-.42-5.24-1.75-6.78-3.64-1.54-1.82-2.31-4.05-2.31-6.64,0-1.71,.35-3.36,1.12-4.82,1.61-3.18,4.26-5.07,7.48-6.12,1.71-.56,3.57-.84,5.52-.84,1.85,0,3.71,.28,5.38,.84,3.15,1.08,5.77,3.08,7.31,6.15,.56,1.12,.91,2.31,1.05,4.12,.07,.98-.7,1.78-1.64,1.78h-5.38c-.84,0-1.57-.66-1.64-1.5-.07-.59-.14-.87-.28-1.12-.24-.38-.56-.77-1.01-1.08-.42-.31-.94-.56-1.68-.77-.7-.21-1.47-.28-2.31-.28-1.4,0-2.97,.24-4.02,1.08-.8,.63-1.29,1.43-1.29,2.48,0,.84,.21,1.22,.49,1.43,.45,.38,1.08,.7,1.99,.91,1.01,.24,2.17,.42,3.57,.56,1.47,.17,3.01,.38,4.68,.7,2.9,.52,5.17,1.71,6.75,3.64,1.57,1.89,2.31,4.19,2.31,6.85,0,1.75-.35,3.39-1.12,4.93-.73,1.57-1.75,2.83-3.08,3.88Z"></path><path class="cls-5" d="M475.72,79.24c-3.04,1.68-6.43,2.52-10.17,2.52s-7.1-.84-10.14-2.52c-3.01-1.64-5.38-3.95-7.13-6.85-1.71-2.9-2.55-6.08-2.55-9.58s.84-6.68,2.55-9.61c1.71-2.9,4.09-5.17,7.13-6.85,3.04-1.64,6.4-2.48,10.14-2.48s7.1,.8,10.17,2.48c3.01,1.64,5.35,3.98,7.06,6.85,1.71,2.94,2.55,6.12,2.55,9.61s-.84,6.68-2.55,9.58c-1.75,2.9-4.12,5.21-7.06,6.85Zm-4.4-25.69c-1.61-.87-3.57-1.33-5.77-1.33s-4.12,.45-5.8,1.36c-1.68,.87-3.01,2.13-3.91,3.74-.91,1.57-1.4,3.43-1.4,5.49s.49,3.91,1.4,5.49c.91,1.54,2.2,2.8,3.95,3.74,1.64,.87,3.57,1.36,5.77,1.36s4.12-.49,5.77-1.36c1.68-.94,3.01-2.13,3.91-3.77,.87-1.57,1.4-3.43,1.4-5.45s-.49-3.88-1.4-5.49c-.91-1.57-2.24-2.83-3.91-3.78Z"></path><path class="cls-5" d="M502.39,53.86c-1.15,.7-2.03,1.47-2.59,2.27-.45,.66-.8,1.96-.8,4.16v18.98c0,.91-.73,1.68-1.68,1.68h-5.03c-.91,0-1.68-.73-1.68-1.68v-29.89c0-2.62,2.13-4.75,4.75-4.75h3.5v2.45c2.27-1.78,5.03-2.52,7.79-2.52h3.64c.91,0,1.68,.73,1.68,1.68v5c0,.91-.73,1.68-1.68,1.68h-4.12c-1.47,0-2.69,.31-3.77,.94Z"></path><path class="cls-5" d="M338.28,77.11l-21.25-22.44h17.83c2.69,0,4.89,2.17,4.93,4.89v16.95c-.03,.77-.98,1.15-1.5,.59Z"></path></g></g></svg>